<svg width="51" height="51" viewBox="0 0 51 51" fill="none" xmlns="http://www.w3.org/2000/svg">
<rect x="0.439453" y="0.230469" width="50" height="50" rx="25" fill="#096E76"/>
<path fill-rule="evenodd" clip-rule="evenodd" d="M15.0794 16.9967C18.911 13.1539 20.4061 11.4042 24.2709 18.3034L21.3031 22.268C20.0849 23.907 27.261 31.5703 29.055 30.0199L32.7649 26.8527C39.4315 30.7287 37.416 32.3344 33.9498 35.8007C28.1469 41.3821 8.3684 22.9989 15.0794 16.9967Z" fill="white"/>
<path d="M14.7359 16.6531H15.4225L14.758 17.3397L14.7359 16.6531ZM15.4225 16.6531L14.758 17.3397L14.7137 17.3176L14.7027 17.2954L14.6916 17.2843L14.6805 17.2622L14.6473 17.24V17.2068L14.6252 17.1957V17.1736V17.1514V17.1293L14.603 17.1071L14.5919 17.0628V16.8857L14.6252 16.8635V16.8414L14.6473 16.8192V16.7971V16.7638L14.6584 16.7528L14.6805 16.7306V16.7085L14.7137 16.6974L14.7248 16.6752L14.7359 16.6531H14.758V16.6199H14.7802L14.8134 16.5867H14.8356L14.8577 16.5756L14.8688 16.5645L14.8909 16.5424H14.9131L14.9352 16.5202H15.0017L15.0349 16.5091H15.1899L15.2121 16.5424H15.2342H15.2564L15.2785 16.5645H15.3007L15.3118 16.5977H15.3228L15.345 16.6199L15.3671 16.631L15.3893 16.6531H15.4225ZM24.6584 18.5911L23.8943 18.0152L23.861 18.5357L23.5067 17.9156L23.1744 17.3618L22.8422 16.8414L22.5432 16.3762L22.2442 15.9554L21.9563 15.59L21.6794 15.2577L21.4026 14.992L21.1589 14.7483L20.9153 14.549L20.6938 14.394L20.4723 14.2832L20.2619 14.1725L20.0737 14.1282L19.8743 14.106H19.6861H19.4978L19.2985 14.1614L19.077 14.2389L18.8776 14.3275L18.6562 14.4604L18.4125 14.6044L18.1578 14.7816L17.9031 14.9809L17.6263 15.2024L17.3494 15.4571L17.0615 15.7229L16.7514 16.0108L16.4192 16.3209L16.0869 16.642L15.7547 16.9743L15.4003 17.3397L14.758 16.6531L15.0903 16.3209L15.4225 15.9665L15.7547 15.6343L16.0869 15.3242L16.397 15.0252L16.696 14.7483L16.995 14.4826L17.3051 14.2389L17.593 14.0174L17.8588 13.807L18.1578 13.6298L18.4458 13.4748L18.7337 13.3419L19.0327 13.2422L19.3428 13.1758L19.6528 13.1426H19.9629L20.273 13.1979L20.5831 13.2865L20.8931 13.4084L21.1922 13.5855L21.4912 13.7849L21.7902 14.0285L22.0892 14.3054L22.3882 14.6376L22.6982 14.992L23.0083 15.3906L23.3184 15.8336L23.6506 16.3209L23.9829 16.8524L24.3372 17.4394L24.6916 18.0706L24.6584 18.5911ZM23.861 18.5357L24.6916 18.0706L24.7027 18.0927L24.7137 18.1149L24.7248 18.137V18.1592L24.7359 18.1813V18.2035L24.747 18.2256V18.425L24.7248 18.4471V18.4693V18.4914L24.7027 18.5136V18.5357L24.6805 18.5579L24.6694 18.5689L24.6584 18.5911L24.6362 18.6132L24.6252 18.6243L24.6141 18.6465H24.5919L24.5698 18.6686L24.5587 18.6797L24.5366 18.6908L24.5144 18.7018L24.4923 18.7129L24.4701 18.724L24.448 18.735H24.4258L24.3926 18.7572H24.3704L24.3483 18.7683H24.149L24.1268 18.7572L24.1047 18.7461H24.0825L24.0604 18.7129H24.0382L24.0271 18.6908H24.005L23.9829 18.6797L23.9718 18.6465H23.9496L23.9386 18.6243L23.9164 18.6132L23.9053 18.5911L23.8832 18.58V18.5579L23.861 18.5357ZM21.6905 22.5556L20.9153 21.9909L23.9053 18.0042L24.6584 18.5911L21.6905 22.5556ZM28.7448 29.6653L29.376 30.3851L29.077 30.5734L28.7448 30.6841L28.4125 30.7063L28.0803 30.673L27.737 30.5955L27.3937 30.4626L27.0393 30.3076L26.6739 30.1082L26.3084 29.8868L25.943 29.6321L25.5665 29.3552L25.1899 29.0451L24.8134 28.724L24.4369 28.3917L24.0714 28.0374L23.706 27.6719L23.3516 27.2954L23.0194 26.9189L22.6872 26.5313L22.366 26.1437L22.0781 25.7561L21.8012 25.3796L21.5576 25.003L21.3361 24.6265L21.1368 24.2721L20.9707 23.9178L20.8378 23.5855L20.7492 23.2533L20.6938 22.9211V22.5889L20.7603 22.2788L20.9264 21.9909L21.6905 22.5556L21.6573 22.5999L21.6462 22.6885V22.8325L21.6794 23.0318L21.7459 23.2644L21.8566 23.5413L21.9895 23.8292L22.1667 24.1614L22.366 24.4936L22.5875 24.8259L22.8422 25.1913L23.1191 25.5568L23.4181 25.9222L23.7281 26.2877L24.0604 26.6531L24.3926 27.0075L24.7359 27.3618L25.0903 27.6941L25.4446 28.0152L25.799 28.3142L26.1534 28.5911L26.4967 28.8569L26.8289 29.0783L27.1611 29.2888L27.4712 29.4549L27.7592 29.5878L28.0139 29.6764L28.2353 29.7317L28.4347 29.7539L28.5786 29.7428L28.6783 29.7096L28.7448 29.6653ZM33.0083 26.4316L33.0748 27.2068L29.376 30.3851L28.7448 29.6653L32.4546 26.487L33.0083 26.4316ZM33.0748 27.2068L32.4546 26.487L32.4657 26.4648H32.4878L32.51 26.4427L32.5321 26.4316L32.5543 26.4205L32.5764 26.4095H32.5875L32.6097 26.3873H32.6539L32.6761 26.3762H32.8865L32.9087 26.3984H32.9308L32.9529 26.4095H32.9751L32.9972 26.4316H33.0083L33.0305 26.4538L33.0526 26.4648L33.0748 26.487L33.0858 26.4981L33.108 26.5202L33.1301 26.5313V26.5534L33.1523 26.5756L33.1634 26.5977L33.1855 26.6199L33.1966 26.6531L33.2077 26.6752V26.6974L33.2187 26.7195L33.2298 26.7417V26.8192L33.2409 26.8414V26.93L33.2298 26.9521V26.9743L33.2187 26.9964V27.0185L33.1966 27.0407V27.0628L33.1855 27.085L33.1634 27.0961V27.1182L33.1412 27.1404L33.1301 27.1625L33.108 27.1736L33.0969 27.1957L33.0748 27.2068ZM34.2819 36.1437L33.6174 35.4571L33.9275 35.147L34.2376 34.8369L34.5366 34.5379L34.8245 34.25L35.0903 33.9731L35.345 33.6963L35.5775 33.4305L35.799 33.1869L35.9873 32.9322L36.1534 32.6996L36.3084 32.4781L36.4302 32.2566L36.5299 32.0352L36.6074 31.8248L36.6517 31.6365L36.685 31.4372V31.2489L36.6628 31.0606L36.6185 30.8613L36.541 30.662L36.4302 30.4405L36.2974 30.219L36.1202 29.9754L35.8987 29.7207L35.6329 29.4549L35.3339 29.178L34.9795 28.8901L34.5919 28.5911L34.149 28.2699L33.6506 27.9488L33.1191 27.6166L32.5211 27.2622L33.0083 26.4316L33.6063 26.7971L34.1711 27.1514L34.6805 27.4837L35.1567 27.8159L35.5775 28.1481L35.9541 28.4582L36.2974 28.7683L36.5964 29.0673L36.8621 29.3663L37.0836 29.6764L37.2719 29.9754L37.4269 30.2854L37.5377 30.5844L37.6041 30.8945L37.6373 31.2046V31.5147L37.593 31.8137L37.5155 32.1127L37.4048 32.4006L37.283 32.6885L37.1279 32.9654L36.9507 33.2422L36.7514 33.508L36.5299 33.7849L36.3084 34.0617L36.0537 34.3386L35.7879 34.6265L35.5111 34.9145L35.2121 35.2135L34.9131 35.5125L34.603 35.8225L34.2819 36.1437ZM33.6174 35.4571L34.2819 36.1437L34.2708 36.1548L34.2486 36.1769L34.2265 36.188L34.2154 36.1991L34.1933 36.2212H34.1711L34.149 36.2434H34.1268L34.1047 36.2544H34.0825L34.0604 36.2655H34.0382L34.0161 36.2766H33.8278L33.8057 36.2544H33.7835L33.7614 36.2323L33.7281 36.2212L33.706 36.2101L33.6838 36.188H33.6617L33.6396 36.1658L33.6285 36.1437L33.6063 36.1326L33.5953 36.1105L33.5731 36.0994L33.562 36.0772L33.551 36.0551L33.5288 36.0329L33.5067 36.0219V35.9997L33.4956 35.9776V35.9554L33.4734 35.9222V35.9001L33.4624 35.8779V35.6896L33.4734 35.6675V35.6453L33.4956 35.6232V35.601L33.5067 35.5789L33.5177 35.5568L33.5399 35.5457V35.5235L33.562 35.5014L33.5842 35.4792L33.6174 35.4571ZM33.6174 35.4571L34.2819 36.1437L34.2708 36.1548L34.2486 36.1769L34.2265 36.188L34.2154 36.1991L34.1933 36.2212H34.1711L34.149 36.2434H34.1268L34.1047 36.2544H34.0825L34.0604 36.2655H34.0382L34.0161 36.2766H33.8278L33.8057 36.2544H33.7835L33.7614 36.2323L33.7281 36.2212L33.706 36.2101L33.6838 36.188H33.6617L33.6396 36.1658L33.6285 36.1437L33.6063 36.1326L33.5953 36.1105L33.5731 36.0994L33.562 36.0772L33.551 36.0551L33.5288 36.0329L33.5067 36.0219V35.9997L33.4956 35.9776V35.9554L33.4734 35.9222V35.9001L33.4624 35.8779V35.6896L33.4734 35.6675V35.6453L33.4956 35.6232V35.601L33.5067 35.5789L33.5177 35.5568L33.5399 35.5457V35.5235L33.562 35.5014L33.5842 35.4792L33.6174 35.4571ZM14.7248 17.3397L15.4225 16.6531L15.4003 17.3397L14.902 17.8823L14.5476 18.4693L14.3262 19.0894L14.2043 19.7982V20.5512L14.304 21.3486L14.5144 22.1902L14.8245 23.0761L15.2342 23.9842L15.7326 24.9034L16.3084 25.8336L16.9618 26.7749L17.6816 27.7051L18.4568 28.6243L19.2763 29.5213L20.1623 30.4073L21.0593 31.2378L22.0006 32.0352L22.964 32.7882L23.9275 33.497L24.902 34.1282L25.8765 34.704L26.84 35.2024L27.7813 35.6232L28.7005 35.9554L29.5864 36.1769L30.4059 36.3209L31.1811 36.3652L31.9009 36.2987L32.5432 36.1326L33.108 35.8558L33.6174 35.4571L34.2819 36.1437L33.6174 36.6642L32.8754 37.0185L32.067 37.24L31.2032 37.3176L30.3062 37.2733L29.376 37.1182L28.4125 36.8635L27.4269 36.5091L26.4302 36.0662L25.4225 35.5346L24.4037 34.9477L23.3848 34.2832L22.3882 33.5523L21.3915 32.7771L20.428 31.9576L19.4867 31.0828L18.6008 30.1858L17.737 29.2555L16.9286 28.3032L16.1866 27.3397L15.5111 26.3652L14.902 25.3796L14.3815 24.405L13.9386 23.4305L13.6063 22.4781L13.3627 21.5257L13.252 20.6066V19.7207L13.3959 18.8569L13.6949 18.0484L14.1379 17.3176L14.758 16.6531L14.7359 17.3397H14.7248ZM15.3893 17.3508L14.758 16.6531L14.7802 16.6199L14.7913 16.6088L14.8134 16.5867H14.8356L14.8577 16.5756L14.8688 16.5645H14.8909L14.9131 16.5424H14.9685L14.9795 16.5202H15.0238L15.057 16.5091H15.1678L15.2121 16.5424H15.2342H15.2564L15.2785 16.5645H15.3007L15.3118 16.5977L15.3339 16.6088L15.345 16.6199L15.3671 16.631L15.3893 16.6531L15.4003 16.6752L15.4225 16.6863L15.4336 16.7085L15.4557 16.7306L15.5 16.7638L15.5111 16.786L15.5222 16.8081V16.8303L15.5332 16.8414V16.8746L15.5443 16.8967V17.1293L15.5111 17.1514V17.1736V17.2068L15.5 17.2179L15.4889 17.24L15.4779 17.2622L15.4668 17.2843L15.4446 17.2954L15.4336 17.3176L15.4003 17.3397L15.3893 17.3508Z" fill="white"/>
</svg>
