<svg width="64" height="76" viewBox="0 0 64 76" fill="none" xmlns="http://www.w3.org/2000/svg">
<path fill-rule="evenodd" clip-rule="evenodd" d="M31.9999 12.6551C39.4207 12.6551 45.4364 18.6708 45.4364 26.0918C45.4364 33.5128 39.4207 39.5284 31.9999 39.5284C24.579 39.5284 18.5633 33.5128 18.5633 26.0918C18.5633 18.6708 24.579 12.6551 31.9999 12.6551ZM33.2186 50.7643V75.9799L58.0918 66.3087V50.5401L38.643 58.1023C38.0773 58.321 37.448 58.0873 37.1538 57.5782L33.2186 50.7643ZM30.7811 75.9799V50.7643L26.847 57.5785C26.6971 57.8373 26.457 58.0318 26.1728 58.1248C25.8885 58.2178 25.5799 58.2028 25.306 58.0826L5.9081 50.5401V66.3086L30.7811 75.9799ZM58.7784 37.1129L33.7611 46.8403L38.737 55.4589L63.7545 45.7315L58.7784 37.1129ZM30.2386 46.8403L5.22133 37.1129L0.245483 45.7315L25.2629 55.4591L30.2386 46.8403ZM31.9999 41.9659C25.3267 41.9659 19.6154 37.8483 17.2678 32.0152L8.04137 35.6026L31.9999 44.9184L55.9584 35.6026L46.732 32.0152C44.3843 37.8483 38.6733 41.9659 31.9999 41.9659ZM56.5319 25.1937C56.8552 25.1937 57.1652 25.3221 57.3937 25.5507C57.6223 25.7793 57.7507 26.0892 57.7507 26.4125C57.7507 26.7357 57.6223 27.0457 57.3937 27.2743C57.1652 27.5028 56.8552 27.6312 56.5319 27.6312H50.8238C50.5005 27.6312 50.1905 27.5028 49.962 27.2743C49.7334 27.0457 49.605 26.7357 49.605 26.4125C49.605 26.0892 49.7334 25.7793 49.962 25.5507C50.1905 25.3221 50.5005 25.1937 50.8238 25.1937H56.5319ZM30.7811 1.23874C30.7812 0.915533 30.9096 0.605578 31.1381 0.377051C31.3667 0.148524 31.6767 0.0201416 31.9999 0.0201416C32.3231 0.0201416 32.633 0.148524 32.8616 0.377051C33.0901 0.605578 33.2186 0.915533 33.2186 1.23874V6.94706C33.2186 7.27029 33.0902 7.58029 32.8616 7.80885C32.6331 8.03741 32.3231 8.16581 31.9999 8.16581C31.6766 8.16581 31.3666 8.03741 31.1381 7.80885C30.9095 7.58029 30.7811 7.27029 30.7811 6.94706V1.23874ZM18.4781 5.0129C18.3971 4.87466 18.3443 4.72174 18.3227 4.56298C18.3011 4.40422 18.3112 4.24275 18.3523 4.0879C18.3935 3.93304 18.4649 3.78787 18.5624 3.66075C18.6599 3.53362 18.7816 3.42707 18.9206 3.34724C19.0595 3.2674 19.2128 3.21587 19.3718 3.19561C19.5307 3.17535 19.6921 3.18676 19.8466 3.22919C20.0011 3.27161 20.1457 3.34422 20.272 3.4428C20.3983 3.54139 20.5038 3.66402 20.5825 3.8036L23.4365 8.747C23.5159 8.88517 23.5673 9.03762 23.5878 9.19567C23.6083 9.35371 23.5975 9.51424 23.5559 9.66809C23.5143 9.82194 23.4429 9.9661 23.3456 10.0923C23.2483 10.2185 23.1271 10.3244 22.9889 10.4037C22.7098 10.5641 22.3785 10.607 22.0678 10.523C21.7571 10.4391 21.4925 10.2352 21.3321 9.95615L18.4781 5.0129ZM9.7071 14.4398C9.56889 14.3598 9.44781 14.2534 9.35075 14.1266C9.2537 13.9998 9.18258 13.8551 9.14147 13.7008C9.10036 13.5465 9.09005 13.3856 9.11114 13.2273C9.13223 13.069 9.18431 12.9165 9.26439 12.7783C9.3444 12.6401 9.45085 12.5191 9.57765 12.4221C9.70445 12.325 9.84913 12.2539 10.0034 12.2128C10.1577 12.1717 10.3186 12.1614 10.4768 12.1825C10.6351 12.2035 10.7877 12.2556 10.9258 12.3356L15.8689 15.1896C16.1454 15.3525 16.3463 15.6181 16.4278 15.9285C16.5092 16.2389 16.4647 16.5689 16.3039 16.8466C16.143 17.1242 15.8789 17.3271 15.5692 17.4109C15.2594 17.4946 14.9291 17.4526 14.6502 17.2938L9.7071 14.4398ZM6.82628 26.9899C6.50304 26.9899 6.19305 26.8615 5.96449 26.6329C5.73593 26.4043 5.60753 26.0943 5.60753 25.7711C5.60753 25.4479 5.73593 25.1379 5.96449 24.9093C6.19305 24.6808 6.50304 24.5524 6.82628 24.5524H12.5344C12.8577 24.5524 13.1677 24.6808 13.3962 24.9093C13.6248 25.1379 13.7532 25.4479 13.7532 25.7711C13.7532 26.0943 13.6248 26.4043 13.3962 26.6329C13.1677 26.8615 12.8577 26.9899 12.5344 26.9899H6.82628ZM43.331 4.12428C43.6651 3.5434 44.407 3.34291 44.9878 3.6767C45.126 3.75605 45.2472 3.86187 45.3445 3.98809C45.4418 4.11431 45.5133 4.25847 45.5548 4.41233C45.5964 4.56618 45.6073 4.72672 45.5868 4.88477C45.5662 5.04282 45.5148 5.19528 45.4354 5.33344L42.5817 10.2768C42.5023 10.415 42.3964 10.5362 42.2702 10.6335C42.144 10.7307 41.9998 10.8022 41.846 10.8438C41.6921 10.8853 41.5316 10.8962 41.3736 10.8757C41.2155 10.8552 41.0631 10.8038 40.9249 10.7244C40.7868 10.645 40.6656 10.5392 40.5683 10.413C40.471 10.2867 40.3996 10.1426 40.358 9.98875C40.3164 9.83491 40.3056 9.67439 40.3261 9.51635C40.3465 9.35831 40.3979 9.20586 40.4773 9.06768L43.331 4.12428ZM52.7535 12.8909C53.0326 12.7293 53.3644 12.6851 53.676 12.7682C53.9876 12.8512 54.2534 13.0546 54.415 13.3337C54.5767 13.6127 54.6208 13.9446 54.5378 14.2562C54.4547 14.5678 54.2513 14.8336 53.9722 14.9952L49.0288 17.8492C48.7501 18.0055 48.4211 18.0457 48.1129 17.9613C47.8047 17.8768 47.5421 17.6745 47.382 17.3979C47.2218 17.1214 47.177 16.793 47.2571 16.4836C47.3372 16.1743 47.5359 15.9089 47.8101 15.7449L52.7535 12.8909ZM37.0877 19.9641L29.128 27.9237L26.412 24.5054C25.7437 23.665 24.5209 23.5253 23.6802 24.1934C22.8396 24.8618 22.6997 26.0846 23.3681 26.9253L27.3653 31.9555C28.0567 32.9456 29.4799 33.081 30.3413 32.2195L39.8419 22.7189C40.6024 21.9583 40.6024 20.7249 39.8419 19.9642C39.0814 19.2036 37.8485 19.2036 37.0877 19.9641Z" fill="#008000"/>
</svg>
