<svg width="79" height="78" viewBox="0 0 79 78" fill="none" xmlns="http://www.w3.org/2000/svg">
<path d="M39.75 78C61.2891 78 78.75 60.5391 78.75 39C78.75 17.4609 61.2891 0 39.75 0C18.2109 0 0.75 17.4609 0.75 39C0.75 60.5391 18.2109 78 39.75 78Z" fill="#FF4040"/>
<path d="M55.0387 38.5834L53.2131 44.4284C53.0085 45.0837 52.8772 45.4888 52.5015 46.0556C52.1693 46.5564 51.5462 46.9498 50.7742 47.0435C50.252 47.1069 49.6996 47.0747 49.1734 47.0747H29.1458C27.8671 47.0747 26.7888 46.1352 26.7213 44.84C26.6963 44.362 26.7194 43.8774 26.7194 43.399V28.2322L25.7941 29.1575H42.2379L41.3456 27.9862C40.6977 32.0753 42.2939 36.0466 45.5897 38.5378C48.6851 40.8775 52.8972 41.164 56.3981 39.6283C56.8602 39.4256 56.9625 38.7592 56.7301 38.3623C56.4535 37.8902 55.926 37.8277 55.464 38.0303C52.5509 39.3082 49.1816 38.8467 46.6244 37.014C43.9746 35.1148 42.6236 31.6753 43.1301 28.4783C43.2227 27.8941 42.8899 27.3069 42.2379 27.3069H25.7941C25.2897 27.3069 24.8688 27.7278 24.8688 28.2322V44.1708C24.8688 45.1962 24.9869 46.1768 25.5782 47.0605C26.4041 48.295 27.7751 48.9253 29.2361 48.9253H49.3924C50.1429 48.9253 50.8836 48.9291 51.6226 48.7551C53.5071 48.3115 54.4464 46.6854 54.9826 44.9686L55.8759 42.1085L56.8234 39.0753C57.1801 37.933 55.3934 37.4483 55.0387 38.5834ZM35.0496 55.4267C35.0287 56.2782 34.3733 56.9337 33.5217 56.9546C32.6699 56.9755 32.0138 56.2469 31.9937 55.4267C31.9729 54.5749 32.7013 53.9188 33.5217 53.8986C34.3733 53.8777 35.0294 54.6063 35.0496 55.4267C35.0789 56.618 36.9295 56.6208 36.9003 55.4267C36.8544 53.5558 35.3925 52.0939 33.5217 52.048C31.6512 52.002 30.1873 53.625 30.1431 55.4267C30.0972 57.2971 31.72 58.7611 33.5217 58.8053C35.3922 58.8512 36.856 57.2283 36.9003 55.4267C36.9295 54.2325 35.0788 54.2354 35.0496 55.4267ZM48.5425 55.4267C48.5217 56.2782 47.8663 56.9337 47.0147 56.9546C46.1629 56.9755 45.5068 56.247 45.4867 55.4267C45.4658 54.5749 46.1943 53.9188 47.0147 53.8986C47.8664 53.8777 48.5225 54.6063 48.5425 55.4267C48.5717 56.618 50.4225 56.6208 50.3932 55.4267C50.3473 53.5558 48.8855 52.0939 47.0147 52.048C45.1441 52.002 43.6802 53.625 43.636 55.4267C43.5901 57.2971 45.213 58.7611 47.0147 58.8053C48.8851 58.8512 50.3491 57.2282 50.3932 55.4267C50.4225 54.2325 48.5717 54.2354 48.5425 55.4267Z" fill="white"/>
<path d="M26.7194 41.7034V26.4233C26.7194 24.8184 25.4761 23.5233 23.8557 23.5233H17.6982C16.5047 23.5233 16.5047 25.374 17.6982 25.374H23.8557C24.357 25.374 24.8186 25.7152 24.865 26.2106C24.8798 26.369 24.8687 26.5342 24.8687 26.6929V41.7034C24.8687 42.8969 26.7194 42.8969 26.7194 41.7034ZM31.1255 37.5347H35.6819C36.8754 37.5347 36.8754 35.684 35.6819 35.684H31.1255C29.9321 35.684 29.9321 37.5347 31.1255 37.5347ZM31.1255 42.6929H44.2789C45.4723 42.6929 45.4723 40.8423 44.2789 40.8423H31.1255C29.9321 40.8423 29.9321 42.6929 31.1255 42.6929Z" fill="white"/>
<path d="M52.1359 51.9672H29.8757C29.2973 51.9672 28.7916 51.9834 28.2415 51.7894C27.1552 51.4064 26.7271 50.2976 26.7271 49.2243V36.5779C26.7271 35.3845 24.8765 35.3845 24.8765 36.5779V49.1948C24.8765 50.5925 25.3185 51.9174 26.4353 52.827C27.3286 53.5549 28.3798 53.8178 29.5076 53.8178H52.1359C53.3293 53.8178 53.3293 51.9672 52.1359 51.9672ZM60.8168 29.8629C60.7933 33.6507 58.356 37.0847 54.7579 38.2971C50.8754 39.6052 46.5105 38.0066 44.3442 34.5215C42.0582 30.8435 42.8776 26.0695 46.009 23.2173C49.1048 20.3973 54.059 20.2255 57.3856 22.8351C59.5464 24.5302 60.7975 27.1238 60.8168 29.8629C60.8252 31.0559 62.6758 31.0567 62.6674 29.8629C62.6331 24.9792 59.2873 20.658 54.5462 19.4409C50.2545 18.3392 45.7616 20.1086 43.1713 23.6339C40.3866 27.4234 40.6132 32.7887 43.4567 36.4684C46.1679 39.977 50.9139 41.4281 55.1378 40.1179C59.5877 38.7375 62.6388 34.4954 62.6674 29.8629C62.6749 28.6692 60.8242 28.6699 60.8168 29.8629Z" fill="white"/>
<path d="M48.0959 27.3451L54.4403 33.6894C55.2849 34.5339 56.5936 33.2253 55.7489 32.3807L49.4046 26.0364C48.56 25.1919 47.2513 26.5005 48.0959 27.3451Z" fill="white"/>
<path d="M49.4046 33.6894L55.7489 27.3451C56.5936 26.5005 55.2849 25.1919 54.4403 26.0364L48.0959 32.3807C47.2513 33.2254 48.56 34.534 49.4046 33.6894Z" fill="white"/>
</svg>
