<svg width="79" height="78" viewBox="0 0 79 78" fill="none" xmlns="http://www.w3.org/2000/svg">
<path d="M39.5 78C61.0391 78 78.5 60.5391 78.5 39C78.5 17.4609 61.0391 0 39.5 0C17.9609 0 0.5 17.4609 0.5 39C0.5 60.5391 17.9609 78 39.5 78Z" fill="#FFA500"/>
<path d="M39.5 13C25.2 13 13.5 24.7 13.5 39C13.5 53.3 25.2 65 39.5 65C53.8 65 65.5 53.3 65.5 39C65.5 24.7 53.8 13 39.5 13ZM7 39C7 21.125 21.625 6.5 39.5 6.5C57.375 6.5 72 21.125 72 39C72 56.875 57.375 71.5 39.5 71.5C21.625 71.5 7 56.875 7 39ZM54.775 28.6C56.075 29.9 56.075 31.85 55.1 33.15L37.875 52.65C36.575 53.95 34.625 54.275 33.325 52.975L33 52.65L24.225 42.9C22.925 41.6 23.25 39.325 24.55 38.35C25.85 37.375 27.8 37.375 29.1 38.675L35.275 45.825L50.225 28.925C51.2 27.3 53.475 27.3 54.775 28.6Z" fill="white"/>
</svg>
