<svg width="79" height="78" viewBox="0 0 79 78" fill="none" xmlns="http://www.w3.org/2000/svg">
<path fill-rule="evenodd" clip-rule="evenodd" d="M52.1444 24.5593L56.9508 27.3366L39.25 37.5527L34.4436 34.7801L51.5183 24.9204L52.1444 24.5593ZM47.1917 22.4265L29.3919 32.7036C29.3705 32.7158 29.3522 32.7295 29.3263 32.7432L28.8647 33.0114V38.936L30.6868 39.9902V34.774H30.6913C30.6913 34.3428 30.9153 33.9193 31.3175 33.6862L49.6322 23.1151L47.8178 22.0655L47.1917 22.4265ZM57.775 50.1896C58.0477 50.0342 58.2031 49.7616 58.2031 49.4462V29.5044L40.5099 39.7221V60.1575L57.775 50.1896ZM20.3 49.4462C20.3 49.7616 20.4554 50.0342 20.7281 50.1896L37.9932 60.156V39.7206L33.2035 36.9571V42.1657C33.2035 42.8604 32.6413 43.4225 31.9467 43.4225C31.674 43.4225 31.4241 43.3357 31.2169 43.1894L26.9803 40.7458C26.7888 40.6359 26.6297 40.4775 26.519 40.2866C26.4083 40.0956 26.3498 39.8788 26.3496 39.6581H26.345V32.9976L20.2985 29.509V49.4462H20.3ZM38.8219 17.3641L21.5568 27.335L27.6155 30.8328L28.0695 30.5693C28.0908 30.5571 28.1167 30.5434 28.1381 30.5297L45.3118 20.6151L39.6766 17.3641C39.4054 17.2087 39.0946 17.2087 38.8219 17.3641ZM66.8364 11.4182C59.7753 4.35702 50.0253 -0.00762939 39.25 -0.00762939C33.4244 -0.00762939 27.8837 1.2751 22.9051 3.58159C18.9959 5.38534 15.4387 7.82589 12.3507 10.7707C11.9744 11.1287 11.3742 11.1241 11.007 10.7539L6.38643 6.13792C6.10611 5.8576 5.7085 5.77991 5.34135 5.93073C4.9742 6.08155 4.74568 6.4228 4.74568 6.82042V21.7577C4.74568 22.2848 5.17682 22.716 5.7085 22.716H20.6458C21.0434 22.716 21.3801 22.492 21.5309 22.1249C21.6863 21.7577 21.604 21.3555 21.3237 21.0752L16.7245 16.476C16.534 16.2855 16.4396 16.0524 16.4442 15.7813C16.4487 15.5086 16.5523 15.2801 16.7458 15.0942C19.3021 12.6887 22.2515 10.6899 25.4903 9.19089C29.6661 7.26069 34.3263 6.18514 39.2485 6.18514C48.313 6.18514 56.5182 9.85511 62.455 15.7935C68.2121 21.5505 71.8394 29.4358 72.0542 38.1667C72.0664 38.6283 72.4473 39 72.9089 39H77.3908C77.633 39 77.8356 38.9132 78.0032 38.7456C78.1723 38.5734 78.2531 38.3662 78.2455 38.1286C78.02 27.7037 73.7026 18.2843 66.8364 11.4182ZM72.7946 55.284H57.8573C57.4597 55.284 57.1184 55.508 56.9676 55.8751C56.8168 56.2422 56.8945 56.6444 57.1794 56.9248L61.774 61.524C61.969 61.7144 62.0635 61.9521 62.0589 62.2187C62.0544 62.4914 61.9508 62.7199 61.7527 62.9058C59.1754 65.3303 56.2243 67.3236 53.0128 68.8091C48.837 70.7393 44.1722 71.8194 39.25 71.8194C30.1901 71.8194 21.9849 68.1449 16.0465 62.2065C10.2895 56.4494 6.66217 48.5641 6.44279 39.8333C6.43365 39.3717 6.05432 39 5.58814 39H1.10467C0.867012 39 0.659824 39.0868 0.495293 39.259C0.326191 39.4281 0.245449 39.6353 0.248496 39.876C0.477012 50.3008 4.80053 59.7142 11.6667 66.5849C18.7293 73.643 28.4793 78.0076 39.25 78.0076C45.0802 78.0076 50.621 76.7249 55.5996 74.4184C59.5072 72.6131 63.0659 70.1741 66.1539 67.2278C66.5302 66.8698 67.1305 66.8743 67.4976 67.2445L72.1136 71.8605C72.3939 72.1408 72.7961 72.2231 73.1633 72.0677C73.5304 71.9169 73.7589 71.5757 73.7589 71.178V56.2453C73.7574 55.7167 73.3263 55.284 72.7946 55.284Z" fill="#096E76"/>
</svg>
